<svg width="8" height="8" viewBox="0 0 8 8" fill="none" xmlns="http://www.w3.org/2000/svg">
<path d="M4.65975 1.29872C4.69358 1.33168 4.83825 1.45613 4.95725 1.57206C5.70567 2.25172 6.93067 4.02473 7.30458 4.95272C7.36467 5.09365 7.49183 5.44996 7.5 5.64033C7.5 5.82275 7.458 5.99664 7.37283 6.16258C7.25383 6.36943 7.06658 6.53537 6.8455 6.62629C6.69208 6.68482 6.233 6.77574 6.22483 6.77574C5.72258 6.86667 4.9065 6.91668 4.00467 6.91668C3.14542 6.91668 2.36258 6.86667 1.85275 6.79223C1.84458 6.7837 1.27408 6.69278 1.07867 6.59333C0.721667 6.41091 0.5 6.05461 0.5 5.67329V5.64033C0.50875 5.392 0.730417 4.86975 0.738583 4.86975C1.11308 3.99177 2.278 2.25967 3.05208 1.56354C3.05208 1.56354 3.251 1.36748 3.37525 1.28224C3.55375 1.14926 3.77483 1.08334 3.99592 1.08334C4.24267 1.08334 4.4725 1.15779 4.65975 1.29872" stroke="#9EA3A9"/>
</svg>
