<svg width="8" height="5" viewBox="0 0 8 5" fill="none" xmlns="http://www.w3.org/2000/svg">
<path fill-rule="evenodd" clip-rule="evenodd" d="M0.292007 0.293002C0.1052 0.481894 0.000427246 0.736838 0.000427246 1.0025C0.000427246 1.26816 0.1052 1.52311 0.292007 1.712L3.23101 4.677C3.44901 4.892 3.73101 4.999 4.01001 4.999C4.28901 4.999 4.56601 4.892 4.77901 4.677L7.70901 1.722C7.89557 1.53298 8.00018 1.27809 8.00018 1.0125C8.00018 0.746917 7.89557 0.492021 7.70901 0.303002C7.61718 0.209818 7.50773 0.13582 7.38705 0.0853119C7.26636 0.0348039 7.13684 0.00879383 7.00601 0.00879383C6.87518 0.00879383 6.74565 0.0348039 6.62497 0.0853119C6.50428 0.13582 6.39484 0.209818 6.30301 0.303002L4.00501 2.62L1.69801 0.293002C1.60597 0.200181 1.49646 0.126505 1.3758 0.0762262C1.25514 0.0259474 1.12572 6.10352e-05 0.995008 6.10352e-05C0.864292 6.10352e-05 0.73487 0.0259474 0.614211 0.0762262C0.493552 0.126505 0.384044 0.200181 0.292007 0.293002Z" fill="#1890FF"/>
</svg>
