<svg width="16" height="18" viewBox="0 0 16 18" fill="none" xmlns="http://www.w3.org/2000/svg">
<path d="M8.00001 0.250002C7.22504 0.249223 6.47742 0.536427 5.9023 1.05586C5.32717 1.57529 4.96557 2.28989 4.88769 3.06094C4.8098 3.83199 5.0212 4.60447 5.48083 5.22842C5.94046 5.85238 6.61554 6.28329 7.37501 6.4375V7.75H4.70876C3.76501 7.75 3.00001 8.515 3.00001 9.45875V11.5625C2.24123 11.7174 1.56699 12.1485 1.10801 12.7722C0.649025 13.396 0.437995 14.168 0.515832 14.9385C0.593668 15.709 0.954826 16.4231 1.52929 16.9425C2.10375 17.4618 2.85058 17.7494 3.62501 17.7494C4.39943 17.7494 5.14627 17.4618 5.72073 16.9425C6.29519 16.4231 6.65635 15.709 6.73418 14.9385C6.81202 14.168 6.60099 13.396 6.14201 12.7722C5.68302 12.1485 5.00878 11.7174 4.25001 11.5625V9.45875C4.25001 9.205 4.45501 9 4.70876 9H11.2925C11.545 9 11.75 9.205 11.75 9.45875V11.5625C10.9912 11.7174 10.317 12.1485 9.85801 12.7722C9.39903 13.396 9.188 14.168 9.26583 14.9385C9.34367 15.709 9.70483 16.4231 10.2793 16.9425C10.8537 17.4618 11.6006 17.7494 12.375 17.7494C13.1494 17.7494 13.8963 17.4618 14.4707 16.9425C15.0452 16.4231 15.4063 15.709 15.4842 14.9385C15.562 14.168 15.351 13.396 14.892 12.7722C14.433 12.1485 13.7588 11.7174 13 11.5625V9.45875C13 8.515 12.235 7.75 11.2925 7.75H8.62376V6.4375C9.38312 6.28331 10.0581 5.85249 10.5177 5.22867C10.9774 4.60485 11.1889 3.83252 11.1111 3.06156C11.0334 2.29061 10.672 1.57602 10.0972 1.05649C9.52227 0.536958 8.77487 0.249534 8.00001 0.250002ZM6.12501 3.375C6.12501 2.87772 6.32255 2.40081 6.67418 2.04918C7.02581 1.69755 7.50273 1.5 8.00001 1.5C8.49729 1.5 8.9742 1.69755 9.32583 2.04918C9.67746 2.40081 9.87501 2.87772 9.87501 3.375C9.87501 3.87228 9.67746 4.3492 9.32583 4.70083C8.9742 5.05246 8.49729 5.25 8.00001 5.25C7.50273 5.25 7.02581 5.05246 6.67418 4.70083C6.32255 4.3492 6.12501 3.87228 6.12501 3.375ZM1.75001 14.625C1.75001 14.1277 1.94755 13.6508 2.29918 13.2992C2.65081 12.9475 3.12773 12.75 3.62501 12.75C4.12229 12.75 4.5992 12.9475 4.95083 13.2992C5.30246 13.6508 5.50001 14.1277 5.50001 14.625C5.50001 15.1223 5.30246 15.5992 4.95083 15.9508C4.5992 16.3025 4.12229 16.5 3.62501 16.5C3.12773 16.5 2.65081 16.3025 2.29918 15.9508C1.94755 15.5992 1.75001 15.1223 1.75001 14.625ZM12.375 12.75C12.6212 12.75 12.8651 12.7985 13.0925 12.8927C13.32 12.987 13.5267 13.1251 13.7008 13.2992C13.8749 13.4733 14.0131 13.68 14.1073 13.9075C14.2015 14.135 14.25 14.3788 14.25 14.625C14.25 14.8712 14.2015 15.115 14.1073 15.3425C14.0131 15.57 13.8749 15.7767 13.7008 15.9508C13.5267 16.1249 13.32 16.263 13.0925 16.3573C12.8651 16.4515 12.6212 16.5 12.375 16.5C11.8777 16.5 11.4008 16.3025 11.0492 15.9508C10.6976 15.5992 10.5 15.1223 10.5 14.625C10.5 14.1277 10.6976 13.6508 11.0492 13.2992C11.4008 12.9475 11.8777 12.75 12.375 12.75Z" fill="#42526E" stroke="#42526E" stroke-width="0.3"/>
</svg>
